<svg width="44" height="66" viewBox="0 0 44 66" fill="none" xmlns="http://www.w3.org/2000/svg">
<path d="M20.4438 41C20.143 41 19.8421 40.9 19.6415 40.6C14.2262 34.5 12.9225 33.1 12.6217 32.7C11.9197 31.8 11.5186 30.6 11.5186 29.4C11.5186 26.4 13.9254 24 17.0342 24C18.3379 24 19.5413 24.5 20.5441 25.3C21.5469 24.5 22.8506 24 24.054 24C27.0625 24 29.5696 26.4 29.5696 29.4C29.5696 30.7 29.0682 31.9 28.266 32.8L21.2461 40.7C21.0455 40.9 20.845 41 20.4438 41ZM14.4268 31.5C14.7276 31.9 17.9367 35.5 20.5441 38.4L26.7617 31.4C27.2631 30.9 27.4637 30.2 27.4637 29.4C27.4637 27.6 25.9594 26.1 24.1543 26.1C23.1515 26.1 22.1486 26.6 21.4467 27.4C21.1458 27.7 20.845 27.8 20.5441 27.8C20.2432 27.8 19.9424 27.6 19.7418 27.4C19.0398 26.6 18.037 26.1 17.0342 26.1C15.2291 26.1 13.7248 27.6 13.7248 29.4C13.6245 30.3 14.0257 31 14.4268 31.5C14.3265 31.5 14.3265 31.5 14.4268 31.5Z" fill="black"/>
<rect x="24" y="15" width="20" height="20" rx="10" fill="#7DB54F"/>
<text fill="white" xml:space="preserve" style="white-space: pre" font-family="PT Sans" font-size="10" letter-spacing="-0.1em"><tspan x="29.0509" y="27.71">12</tspan></text>
</svg>
